# xmcd CD database file
#
# Track frame offsets:
#	150
#	14833
#	27186
#	43664
#	53965
#	66064
#	82296
#	96711
#	112550
#	122766
#	133628
#	146965
#	158732
#	171197
#	189507
#	204070
#	217260
#	230033
#	242115
#	251247
#	261559
#	276763
#	287479
#	303531
#
# Disc length: 4210 seconds
#
# Revision: 1
# Processed by: cddbd v1.5.2PL0 Copyright (c) Steve Scherf et al.
# Submitted via: CDex 1.51
#
DISCID=78107018
DTITLE=Art van Damme - Swinging The Accordion On MPS CD3 - Art In The Black Forrest and On The Road
DYEAR=1900
DGENRE=Jazz
TTITLE0=I Git Rhythm
TTITLE1=Give Me The Simole Life
TTITLE2=All The Things You Are
TTITLE3=Pandora
TTITLE4=Love Me Or Leave Me
TTITLE5=Pennies From Heaven
TTITLE6=Don't Get Around Much Anymore
TTITLE7=Lover Man
TTITLE8=If I Had You
TTITLE9=Avalon
TTITLE10=Day In Day Out
TTITLE11=For Sale
TTITLE12=The Way You Look Tonight
TTITLE13=Yellow Days
TTITLE14=Lonesome Road
TTITLE15=Wave
TTITLE16=I'm Beginning To See The Light
TTITLE17=Sweet Georgia Brown
TTITLE18=Undecided
TTITLE19=Doree's Tune
TTITLE20=Bernie's Tune
TTITLE21=Watch What Happens
TTITLE22=Stars Fell on Alabama
TTITLE23='S Wonderful
EXTD=
EXTT0=
EXTT1=
EXTT2=
EXTT3=
EXTT4=
EXTT5=
EXTT6=
EXTT7=
EXTT8=
EXTT9=
EXTT10=
EXTT11=
EXTT12=
EXTT13=
EXTT14=
EXTT15=
EXTT16=
EXTT17=
EXTT18=
EXTT19=
EXTT20=
EXTT21=
EXTT22=
EXTT23=
PLAYORDER=
